STARTFONT 2.1
FONT -Bitstream-Terminal-Medium-R-Narrow--36-280-100-100-C-140-DEC-DECtech
SIZE 28 100 100
FONTBOUNDINGBOX 14 40 0 -10

STARTPROPERTIES 25
CHARSET_REGISTRY "DEC"
CHARSET_ENCODING "DECtech"
CAP_HEIGHT 22
X_HEIGHT 18
AVERAGE_WIDTH 140
FONTNAME_REGISTRY ""
FAMILY_NAME "Terminal"
FOUNDRY "Bitstream"
WEIGHT_NAME "Medium"
SETWIDTH_NAME "Narrow"
SLANT "R"
ADD_STYLE_NAME ""
PIXEL_SIZE 36
POINT_SIZE 280
RESOLUTION_X 100
RESOLUTION_Y 100
SPACING "C"
CHARSET_COLLECTIONS "DEC-DECtech"
FULL_NAME "Terminal Narrow"
COPYRIGHT "Copyright (c) 1988 Bitstream, Inc., Copyright 1990 Digital Equipment Corp. All rights reserved."
WEIGHT 10
QUAD_WIDTH 14
DEFAULT_CHAR 159
FONT_DESCENT 10
FONT_ASCENT 30
ENDPROPERTIES

CHARS 181

STARTCHAR space
ENCODING 32
SWIDTH 360 0
DWIDTH 14 0
BBX 1 1 0 0
BITMAP
00
ENDCHAR

STARTCHAR exclam
ENCODING 33
SWIDTH 360 0
DWIDTH 14 0
BBX 5 22 4 0
BITMAP
30
30
30
30
30
30
30
30
30
30
30
30
30
30
00
00
00
00
70
F8
F8
70
ENDCHAR

STARTCHAR quotedbl
ENCODING 34
SWIDTH 360 0
DWIDTH 14 0
BBX 6 8 4 14
BITMAP
CC
CC
CC
CC
CC
CC
CC
CC
ENDCHAR

STARTCHAR numbersign
ENCODING 35
SWIDTH 360 0
DWIDTH 14 0
BBX 12 26 1 -4
BITMAP
1980
1980
1980
1980
1980
1980
1980
1980
1980
FFF0
FFF0
1980
1980
1980
1980
FFF0
FFF0
1980
1980
1980
1980
1980
1980
1980
1980
1980
ENDCHAR

STARTCHAR dollar
ENCODING 36
SWIDTH 360 0
DWIDTH 14 0
BBX 10 30 2 -6
BITMAP
0C00
0C00
0C00
0C00
1EC0
7FC0
61C0
C0C0
C0C0
C0C0
C000
E000
7000
7E00
1F80
0380
01C0
00C0
C0C0
C0C0
C0C0
E1C0
FF80
DF00
0C00
0C00
0C00
0C00
0C00
0C00
ENDCHAR

STARTCHAR percent
ENCODING 37
SWIDTH 360 0
DWIDTH 14 0
BBX 14 22 0 0
BITMAP
3C00
7E00
C300
C300
C300
C300
C300
7E08
3C38
00F0
03C0
0F00
3C00
70F0
41F8
030C
030C
030C
030C
030C
01F8
00F0
ENDCHAR

STARTCHAR ampersand
ENCODING 38
SWIDTH 360 0
DWIDTH 14 0
BBX 10 22 2 0
BITMAP
1D00
1F00
3300
3300
3000
3000
3000
3000
1800
1800
38C0
78C0
CC80
CC80
C680
C680
C380
C300
C380
E780
7EC0
3CC0
ENDCHAR

STARTCHAR quoteright
ENCODING 39
SWIDTH 360 0
DWIDTH 14 0
BBX 7 8 3 20
BITMAP
1E
1E
3C
38
70
70
E0
C0
ENDCHAR

STARTCHAR parenleft
ENCODING 40
SWIDTH 360 0
DWIDTH 14 0
BBX 6 32 4 -5
BITMAP
0C
0C
18
18
30
30
60
60
60
60
C0
C0
C0
C0
C0
C0
C0
C0
C0
C0
C0
C0
60
60
60
60
30
30
18
18
0C
0C
ENDCHAR

STARTCHAR parenright
ENCODING 41
SWIDTH 360 0
DWIDTH 14 0
BBX 6 32 4 -5
BITMAP
C0
C0
60
60
30
30
18
18
18
18
0C
0C
0C
0C
0C
0C
0C
0C
0C
0C
0C
0C
18
18
18
18
30
30
60
60
C0
C0
ENDCHAR

STARTCHAR asterisk
ENCODING 42
SWIDTH 360 0
DWIDTH 14 0
BBX 10 11 2 6
BITMAP
0C00
0C00
0C00
CCC0
FFC0
7F80
1E00
3F00
7380
E1C0
C0C0
ENDCHAR

STARTCHAR plus
ENCODING 43
SWIDTH 360 0
DWIDTH 14 0
BBX 10 14 2 4
BITMAP
0C00
0C00
0C00
0C00
0C00
0C00
FFC0
FFC0
0C00
0C00
0C00
0C00
0C00
0C00
ENDCHAR

STARTCHAR comma
ENCODING 44
SWIDTH 360 0
DWIDTH 14 0
BBX 7 8 3 -4
BITMAP
1E
1C
38
38
70
60
E0
C0
ENDCHAR

STARTCHAR minus
ENCODING 45
SWIDTH 360 0
DWIDTH 14 0
BBX 10 2 2 10
BITMAP
FFC0
FFC0
ENDCHAR

STARTCHAR period
ENCODING 46
SWIDTH 360 0
DWIDTH 14 0
BBX 5 4 4 0
BITMAP
70
F8
F8
70
ENDCHAR

STARTCHAR slash
ENCODING 47
SWIDTH 360 0
DWIDTH 14 0
BBX 9 27 3 -2
BITMAP
0180
0180
0180
0300
0300
0300
0300
0600
0600
0600
0C00
0C00
0C00
0C00
1800
1800
1800
3000
3000
3000
6000
6000
6000
6000
C000
C000
C000
ENDCHAR

STARTCHAR zero
ENCODING 48
SWIDTH 360 0
DWIDTH 14 0
BBX 9 22 2 0
BITMAP
1C00
3E00
6300
6300
C180
C180
C180
C180
C180
C180
C180
C180
C180
C180
C180
C180
C180
C180
6300
6300
3E00
1C00
ENDCHAR

STARTCHAR one
ENCODING 49
SWIDTH 360 0
DWIDTH 14 0
BBX 9 22 2 0
BITMAP
0C00
3C00
7C00
EC00
CC00
0C00
0C00
0C00
0C00
0C00
0C00
0C00
0C00
0C00
0C00
0C00
0C00
0C00
0C00
0C00
7F80
7F80
ENDCHAR

STARTCHAR two
ENCODING 50
SWIDTH 360 0
DWIDTH 14 0
BBX 9 22 2 0
BITMAP
1E00
7F00
6380
C180
C180
C180
0180
0180
0300
0300
0600
0600
0C00
0C00
1800
1800
3000
3000
6180
E180
FF80
FF80
ENDCHAR

STARTCHAR three
ENCODING 51
SWIDTH 360 0
DWIDTH 14 0
BBX 9 22 2 0
BITMAP
3E00
7F00
C300
C180
0180
0180
0180
0180
0300
1F00
1E00
0300
0180
0180
0180
0180
0180
0180
C180
E300
7F00
1E00
ENDCHAR

STARTCHAR four
ENCODING 52
SWIDTH 360 0
DWIDTH 14 0
BBX 10 22 1 0
BITMAP
0300
0300
0700
0700
0F00
0F00
1B00
1B00
3300
3300
2300
6300
6300
C300
FFC0
FFC0
0300
0300
0300
0300
0300
0300
ENDCHAR

STARTCHAR five
ENCODING 53
SWIDTH 360 0
DWIDTH 14 0
BBX 9 22 2 0
BITMAP
FF80
FF80
C000
C000
C000
C000
C000
DC00
FF00
E300
C180
0180
0180
0180
0180
0180
0180
0180
C180
E300
7F00
1C00
ENDCHAR

STARTCHAR six
ENCODING 54
SWIDTH 360 0
DWIDTH 14 0
BBX 9 22 2 0
BITMAP
0700
1F00
3800
3000
6000
6000
6000
C000
C000
DE00
FF00
E300
C180
C180
C180
C180
C180
C180
C180
6300
7F00
3E00
ENDCHAR

STARTCHAR seven
ENCODING 55
SWIDTH 360 0
DWIDTH 14 0
BBX 9 22 3 0
BITMAP
FF80
FF80
C180
C180
0300
0300
0300
0600
0600
0600
0C00
0C00
0C00
1800
1800
1800
3000
3000
3000
6000
6000
6000
ENDCHAR

STARTCHAR eight
ENCODING 56
SWIDTH 360 0
DWIDTH 14 0
BBX 9 22 2 0
BITMAP
1C00
7F00
6300
C180
C180
C180
C180
C180
6300
3E00
3E00
6300
6100
C180
C180
C180
C180
C180
C180
6300
7F00
1C00
ENDCHAR

STARTCHAR nine
ENCODING 57
SWIDTH 360 0
DWIDTH 14 0
BBX 9 22 2 0
BITMAP
3E00
7F00
6300
C180
C180
C180
C180
C180
C180
C180
6380
7F80
3D80
0180
0180
0300
0300
0300
0600
0E00
7C00
7800
ENDCHAR

STARTCHAR colon
ENCODING 58
SWIDTH 360 0
DWIDTH 14 0
BBX 5 16 4 0
BITMAP
70
F8
F8
70
00
00
00
00
00
00
00
00
70
F8
F8
70
ENDCHAR

STARTCHAR semicolon
ENCODING 59
SWIDTH 360 0
DWIDTH 14 0
BBX 7 20 3 -4
BITMAP
1C
3E
3E
1C
00
00
00
00
00
00
00
00
1E
1C
38
38
70
60
E0
C0
ENDCHAR

STARTCHAR less
ENCODING 60
SWIDTH 360 0
DWIDTH 14 0
BBX 13 13 0 4
BITMAP
0018
0078
01E0
0780
1E00
7800
E000
7800
1E00
0780
01E0
0078
0018
ENDCHAR

STARTCHAR equal
ENCODING 61
SWIDTH 360 0
DWIDTH 14 0
BBX 10 8 2 7
BITMAP
FFC0
FFC0
0000
0000
0000
0000
FFC0
FFC0
ENDCHAR

STARTCHAR greater
ENCODING 62
SWIDTH 360 0
DWIDTH 14 0
BBX 13 13 1 4
BITMAP
C000
F000
3C00
0F00
03C0
00F0
0038
00F0
03C0
0F00
3C00
F000
C000
ENDCHAR

STARTCHAR question
ENCODING 63
SWIDTH 360 0
DWIDTH 14 0
BBX 10 22 2 0
BITMAP
3F00
7F80
C1C0
C0C0
C0C0
C0C0
0180
0380
0600
0600
0C00
0C00
0C00
0C00
0000
0000
0000
0000
1C00
3E00
3E00
1C00
ENDCHAR

STARTCHAR at
ENCODING 64
SWIDTH 360 0
DWIDTH 14 0
BBX 12 28 1 -4
BITMAP
1F00
7F80
60C0
C0C0
C0C0
C0C0
C0C0
C0C0
C3C0
C7C0
CCC0
CCC0
CCC0
CCC0
CCC0
CCC0
CCC0
CCC0
CFF0
C7F0
C000
C000
C000
E000
6030
7070
3FE0
1FC0
ENDCHAR

STARTCHAR A
ENCODING 65
SWIDTH 360 0
DWIDTH 14 0
BBX 14 22 0 0
BITMAP
0780
0780
0780
0480
0CC0
0CC0
0CC0
0CC0
0CC0
0CC0
1860
1860
1860
1860
1FE0
1FE0
3030
3030
3030
3030
FCFC
FCFC
ENDCHAR

STARTCHAR B
ENCODING 66
SWIDTH 360 0
DWIDTH 14 0
BBX 12 22 1 0
BITMAP
FFC0
FFE0
3070
3030
3030
3030
3030
3030
3030
3060
3FC0
3FE0
3070
3030
3030
3030
3030
3030
3030
3070
FFE0
FFC0
ENDCHAR

STARTCHAR C
ENCODING 67
SWIDTH 360 0
DWIDTH 14 0
BBX 10 22 2 0
BITMAP
1CC0
7EC0
63C0
C1C0
C0C0
C0C0
C000
C000
C000
C000
C000
C000
C000
C000
C000
C000
C000
C000
C0C0
6180
7F80
1E00
ENDCHAR

STARTCHAR D
ENCODING 68
SWIDTH 360 0
DWIDTH 14 0
BBX 12 22 1 0
BITMAP
FF80
FFE0
3060
3030
3030
3030
3030
3030
3030
3030
3030
3030
3030
3030
3030
3030
3030
3030
3030
3060
FFE0
FF80
ENDCHAR

STARTCHAR E
ENCODING 69
SWIDTH 360 0
DWIDTH 14 0
BBX 12 22 1 0
BITMAP
FFF0
FFF0
3030
3030
3030
3030
3000
3000
30C0
30C0
3FC0
3FC0
30C0
30C0
3000
3000
3030
3030
3030
3030
FFF0
FFF0
ENDCHAR

STARTCHAR F
ENCODING 70
SWIDTH 360 0
DWIDTH 14 0
BBX 12 22 1 0
BITMAP
FFF0
FFF0
3030
3030
3030
3030
3000
3000
30C0
30C0
3FC0
3FC0
30C0
30C0
3000
3000
3000
3000
3000
3000
FC00
FC00
ENDCHAR

STARTCHAR G
ENCODING 71
SWIDTH 360 0
DWIDTH 14 0
BBX 12 22 1 0
BITMAP
1CC0
7EC0
63C0
C1C0
C0C0
C0C0
C000
C000
C000
C000
C000
C000
C3F0
C3F0
C0C0
C0C0
C0C0
C0C0
C0C0
60C0
7FC0
1F00
ENDCHAR

STARTCHAR H
ENCODING 72
SWIDTH 360 0
DWIDTH 14 0
BBX 14 22 0 0
BITMAP
FCFC
FCFC
3030
3030
3030
3030
3030
3030
3030
3030
3FF0
3FF0
3030
3030
3030
3030
3030
3030
3030
3030
FCFC
FCFC
ENDCHAR

STARTCHAR I
ENCODING 73
SWIDTH 360 0
DWIDTH 14 0
BBX 10 22 2 0
BITMAP
FFC0
FFC0
0C00
0C00
0C00
0C00
0C00
0C00
0C00
0C00
0C00
0C00
0C00
0C00
0C00
0C00
0C00
0C00
0C00
0C00
FFC0
FFC0
ENDCHAR

STARTCHAR J
ENCODING 74
SWIDTH 360 0
DWIDTH 14 0
BBX 12 22 1 0
BITMAP
0FF0
0FF0
00C0
00C0
00C0
00C0
00C0
00C0
00C0
00C0
00C0
00C0
C0C0
C0C0
C0C0
C0C0
C0C0
C0C0
C0C0
E1C0
7F80
3F00
ENDCHAR

STARTCHAR K
ENCODING 75
SWIDTH 360 0
DWIDTH 14 0
BBX 14 22 0 0
BITMAP
FC3C
FC3C
3060
3060
30C0
30C0
3180
3180
3300
3300
3780
3580
3D80
38C0
30C0
30C0
3060
3060
3060
3030
FC3C
FC3C
ENDCHAR

STARTCHAR L
ENCODING 76
SWIDTH 360 0
DWIDTH 14 0
BBX 12 22 1 0
BITMAP
FC00
FC00
3000
3000
3000
3000
3000
3000
3000
3000
3000
3000
3000
3000
3000
3000
3030
3030
3030
3030
FFF0
FFF0
ENDCHAR

STARTCHAR M
ENCODING 77
SWIDTH 360 0
DWIDTH 14 0
BBX 14 22 0 0
BITMAP
F03C
F03C
3030
3030
3870
3870
3870
3870
3CF0
34B0
34B0
34B0
37B0
3330
3330
3330
3030
3030
3030
3030
FCFC
FCFC
ENDCHAR

STARTCHAR N
ENCODING 78
SWIDTH 360 0
DWIDTH 14 0
BBX 14 22 0 0
BITMAP
F8FC
F8FC
3830
3C30
3C30
3430
3630
3630
3230
3330
3330
3130
31B0
31B0
30B0
30F0
30F0
3070
3070
3070
FC30
FC30
ENDCHAR

STARTCHAR O
ENCODING 79
SWIDTH 360 0
DWIDTH 14 0
BBX 10 22 2 0
BITMAP
1E00
7F80
6180
E1C0
C0C0
C0C0
C0C0
C0C0
C0C0
C0C0
C0C0
C0C0
C0C0
C0C0
C0C0
C0C0
C0C0
C0C0
E1C0
6180
7F80
1E00
ENDCHAR

STARTCHAR P
ENCODING 80
SWIDTH 360 0
DWIDTH 14 0
BBX 12 22 1 0
BITMAP
FF80
FFE0
3060
3030
3030
3030
3030
3030
3030
3030
3030
3060
3FE0
3FC0
3000
3000
3000
3000
3000
3000
FC00
FC00
ENDCHAR

STARTCHAR Q
ENCODING 81
SWIDTH 360 0
DWIDTH 14 0
BBX 10 28 2 -6
BITMAP
1E00
7F80
6180
C0C0
C0C0
C0C0
C0C0
C0C0
C0C0
C0C0
C0C0
C0C0
C0C0
C0C0
C0C0
C0C0
C0C0
C0C0
C0C0
6180
7F80
1E00
1000
3000
38C0
7EC0
C780
C300
ENDCHAR

STARTCHAR R
ENCODING 82
SWIDTH 360 0
DWIDTH 14 0
BBX 14 22 0 0
BITMAP
FFC0
FFE0
3060
3030
3030
3030
3030
3030
3030
3060
3FE0
3FC0
30C0
30C0
3060
3060
3060
3030
3030
3030
FC1C
FC1C
ENDCHAR

STARTCHAR S
ENCODING 83
SWIDTH 360 0
DWIDTH 14 0
BBX 10 22 2 0
BITMAP
1EC0
7FC0
61C0
C0C0
C0C0
C0C0
C000
C000
E000
7800
3F00
0F80
01C0
00C0
00C0
00C0
C0C0
C0C0
C0C0
E1C0
FF80
DF00
ENDCHAR

STARTCHAR T
ENCODING 84
SWIDTH 360 0
DWIDTH 14 0
BBX 12 22 1 0
BITMAP
FFF0
FFF0
C630
C630
C630
C630
C630
0600
0600
0600
0600
0600
0600
0600
0600
0600
0600
0600
0600
0600
1F80
1F80
ENDCHAR

STARTCHAR U
ENCODING 85
SWIDTH 360 0
DWIDTH 14 0
BBX 14 22 0 0
BITMAP
FCFC
FCFC
3030
3030
3030
3030
3030
3030
3030
3030
3030
3030
3030
3030
3030
3030
3030
3030
3030
1860
1FE0
0780
ENDCHAR

STARTCHAR V
ENCODING 86
SWIDTH 360 0
DWIDTH 14 0
BBX 14 22 0 0
BITMAP
FCFC
FCFC
3030
3030
3030
3030
1860
1860
1860
1860
1860
1860
0CC0
0CC0
0CC0
0CC0
0CC0
0480
0780
0780
0300
0300
ENDCHAR

STARTCHAR W
ENCODING 87
SWIDTH 360 0
DWIDTH 14 0
BBX 14 22 0 0
BITMAP
F03C
F03C
C00C
C00C
C30C
C30C
C30C
C30C
C78C
C78C
6498
6498
6CD8
6CD8
6858
6858
7878
7878
3030
3030
3030
3030
ENDCHAR

STARTCHAR X
ENCODING 88
SWIDTH 360 0
DWIDTH 14 0
BBX 14 22 0 0
BITMAP
F03C
F03C
3030
3030
1860
1860
0CC0
0CC0
0780
0780
0300
0300
0780
0780
0CC0
0CC0
1860
1860
3030
3030
F03C
F03C
ENDCHAR

STARTCHAR Y
ENCODING 89
SWIDTH 360 0
DWIDTH 14 0
BBX 14 22 0 0
BITMAP
FCFC
FCFC
3030
3030
1860
1860
1860
0CC0
0CC0
0CC0
0CC0
0780
0780
0780
0300
0300
0300
0300
0300
0300
0FC0
0FC0
ENDCHAR

STARTCHAR Z
ENCODING 90
SWIDTH 360 0
DWIDTH 14 0
BBX 10 22 2 0
BITMAP
FFC0
FFC0
C0C0
C0C0
C180
C180
0300
0300
0600
0600
0C00
0C00
1800
1800
3000
3000
60C0
60C0
C0C0
C0C0
FFC0
FFC0
ENDCHAR

STARTCHAR bracketleft
ENCODING 91
SWIDTH 360 0
DWIDTH 14 0
BBX 6 32 5 -5
BITMAP
FC
FC
C0
C0
C0
C0
C0
C0
C0
C0
C0
C0
C0
C0
C0
C0
C0
C0
C0
C0
C0
C0
C0
C0
C0
C0
C0
C0
C0
C0
FC
FC
ENDCHAR

STARTCHAR backslash
ENCODING 92
SWIDTH 360 0
DWIDTH 14 0
BBX 9 27 2 -2
BITMAP
C000
C000
C000
6000
6000
6000
6000
3000
3000
3000
1800
1800
1800
1800
0C00
0C00
0C00
0600
0600
0600
0300
0300
0300
0300
0180
0180
0180
ENDCHAR

STARTCHAR bracketright
ENCODING 93
SWIDTH 360 0
DWIDTH 14 0
BBX 6 32 3 -5
BITMAP
FC
FC
0C
0C
0C
0C
0C
0C
0C
0C
0C
0C
0C
0C
0C
0C
0C
0C
0C
0C
0C
0C
0C
0C
0C
0C
0C
0C
0C
0C
FC
FC
ENDCHAR

STARTCHAR asciicircum
ENCODING 94
SWIDTH 360 0
DWIDTH 14 0
BBX 11 6 1 12
BITMAP
0400
0E00
1F00
3B80
71C0
E0E0
ENDCHAR

STARTCHAR ldblank
ENCODING 95
SWIDTH 360 0
DWIDTH 14 0
BBX 1 1 0 0
BITMAP
00
ENDCHAR

STARTCHAR diamond
ENCODING 96
SWIDTH 360 0
DWIDTH 14 0
BBX 12 22 1 0
BITMAP
0600
0600
0F00
0F00
1F80
1F80
3FC0
3FC0
7FE0
7FE0
FFF0
FFF0
7FE0
7FE0
3FC0
3FC0
1F80
1F80
0F00
0F00
0600
0600
ENDCHAR

STARTCHAR checkerboard
ENCODING 97
SWIDTH 360 0
DWIDTH 14 0
BBX 14 40 0 -10
BITMAP
AAA8
5554
AAA8
5554
AAA8
5554
AAA8
5554
AAA8
5554
AAA8
5554
AAA8
5554
AAA8
5554
AAA8
5554
AAA8
5554
AAA8
5554
AAA8
5554
AAA8
5554
AAA8
5554
AAA8
5554
AAA8
5554
AAA8
5554
AAA8
5554
AAA8
5554
AAA8
5554
ENDCHAR

STARTCHAR HT
ENCODING 98
SWIDTH 360 0
DWIDTH 14 0
BBX 12 26 1 -2
BITMAP
CC00
CC00
CC00
CC00
FC00
FC00
CC00
CC00
CC00
CC00
CC00
CC00
0000
0000
03F0
03F0
00C0
00C0
00C0
00C0
00C0
00C0
00C0
00C0
00C0
00C0
ENDCHAR

STARTCHAR FF
ENCODING 99
SWIDTH 360 0
DWIDTH 14 0
BBX 12 26 1 -2
BITMAP
FC00
FC00
C000
C000
FC00
FC00
C000
C000
C000
C000
C000
C000
0000
0000
03F0
03F0
0300
0300
03F0
03F0
0300
0300
0300
0300
0300
0300
ENDCHAR

STARTCHAR CR
ENCODING 100
SWIDTH 360 0
DWIDTH 14 0
BBX 12 26 1 -2
BITMAP
3C00
7E00
C300
C300
C000
C000
C000
C000
C300
C300
7E00
3C00
0000
0000
03E0
03F0
0330
0330
0330
0330
03E0
03E0
0330
0330
0330
0330
ENDCHAR

STARTCHAR LF
ENCODING 101
SWIDTH 360 0
DWIDTH 14 0
BBX 12 26 1 -2
BITMAP
C000
C000
C000
C000
C000
C000
C000
C000
C000
C000
FC00
FC00
0000
0000
03F0
03F0
0300
0300
03F0
03F0
0300
0300
0300
0300
0300
0300
ENDCHAR

STARTCHAR degree
ENCODING 102
SWIDTH 360 0
DWIDTH 14 0
BBX 10 9 2 14
BITMAP
1E00
7F80
6180
C0C0
C0C0
C0C0
6180
7F80
1E00
ENDCHAR

STARTCHAR plusminus
ENCODING 103
SWIDTH 360 0
DWIDTH 14 0
BBX 10 20 2 0
BITMAP
0C00
0C00
0C00
0C00
0C00
0C00
FFC0
FFC0
0C00
0C00
0C00
0C00
0C00
0C00
0000
0000
0000
0000
FFC0
FFC0
ENDCHAR

STARTCHAR NL
ENCODING 104
SWIDTH 360 0
DWIDTH 14 0
BBX 13 26 1 -2
BITMAP
C300
C300
E300
E300
F300
D300
DB00
CB00
CF00
C700
C700
C300
0000
0000
0180
0180
0180
0180
0180
0180
0180
0180
0180
0180
01F8
01F8
ENDCHAR

STARTCHAR VT
ENCODING 105
SWIDTH 360 0
DWIDTH 14 0
BBX 12 26 1 -2
BITMAP
CC00
CC00
CC00
CC00
CC00
CC00
CC00
CC00
4800
7800
3000
3000
0000
0000
03F0
03F0
00C0
00C0
00C0
00C0
00C0
00C0
00C0
00C0
00C0
00C0
ENDCHAR

STARTCHAR ldcornsqlr
ENCODING 106
SWIDTH 360 0
DWIDTH 14 0
BBX 8 22 0 8
BITMAP
03
03
03
03
03
03
03
03
03
03
03
03
03
03
03
03
03
03
03
03
FF
FF
ENDCHAR

STARTCHAR ldcornsqur
ENCODING 107
SWIDTH 360 0
DWIDTH 14 0
BBX 8 20 0 -10
BITMAP
FF
FF
03
03
03
03
03
03
03
03
03
03
03
03
03
03
03
03
03
03
ENDCHAR

STARTCHAR ldcornsqul
ENCODING 108
SWIDTH 360 0
DWIDTH 14 0
BBX 8 20 6 -10
BITMAP
FF
FF
C0
C0
C0
C0
C0
C0
C0
C0
C0
C0
C0
C0
C0
C0
C0
C0
C0
C0
ENDCHAR

STARTCHAR ldcornsqll
ENCODING 109
SWIDTH 360 0
DWIDTH 14 0
BBX 8 22 6 8
BITMAP
C0
C0
C0
C0
C0
C0
C0
C0
C0
C0
C0
C0
C0
C0
C0
C0
C0
C0
C0
C0
FF
FF
ENDCHAR

STARTCHAR ldcross
ENCODING 110
SWIDTH 360 0
DWIDTH 14 0
BBX 14 40 0 -10
BITMAP
0300
0300
0300
0300
0300
0300
0300
0300
0300
0300
0300
0300
0300
0300
0300
0300
0300
0300
0300
0300
FFFC
FFFC
0300
0300
0300
0300
0300
0300
0300
0300
0300
0300
0300
0300
0300
0300
0300
0300
0300
0300
ENDCHAR

STARTCHAR ldscan1
ENCODING 111
SWIDTH 360 0
DWIDTH 14 0
BBX 14 2 0 26
BITMAP
FFFC
FFFC
ENDCHAR

STARTCHAR ldscan3
ENCODING 112
SWIDTH 360 0
DWIDTH 14 0
BBX 14 2 0 17
BITMAP
FFFC
FFFC
ENDCHAR

STARTCHAR ldhorizontal
ENCODING 113
SWIDTH 360 0
DWIDTH 14 0
BBX 14 2 0 8
BITMAP
FFFC
FFFC
ENDCHAR

STARTCHAR ldscan7
ENCODING 114
SWIDTH 360 0
DWIDTH 14 0
BBX 14 2 0 -1
BITMAP
FFFC
FFFC
ENDCHAR

STARTCHAR ldscan9
ENCODING 115
SWIDTH 360 0
DWIDTH 14 0
BBX 14 2 0 -10
BITMAP
FFFC
FFFC
ENDCHAR

STARTCHAR ldteelft
ENCODING 116
SWIDTH 360 0
DWIDTH 14 0
BBX 8 40 6 -10
BITMAP
C0
C0
C0
C0
C0
C0
C0
C0
C0
C0
C0
C0
C0
C0
C0
C0
C0
C0
C0
C0
FF
FF
C0
C0
C0
C0
C0
C0
C0
C0
C0
C0
C0
C0
C0
C0
C0
C0
C0
C0
ENDCHAR

STARTCHAR ldteert
ENCODING 117
SWIDTH 360 0
DWIDTH 14 0
BBX 8 40 0 -10
BITMAP
03
03
03
03
03
03
03
03
03
03
03
03
03
03
03
03
03
03
03
03
FF
FF
03
03
03
03
03
03
03
03
03
03
03
03
03
03
03
03
03
03
ENDCHAR

STARTCHAR ldteebt
ENCODING 118
SWIDTH 360 0
DWIDTH 14 0
BBX 14 22 0 8
BITMAP
0300
0300
0300
0300
0300
0300
0300
0300
0300
0300
0300
0300
0300
0300
0300
0300
0300
0300
0300
0300
FFFC
FFFC
ENDCHAR

STARTCHAR ldteetp
ENCODING 119
SWIDTH 360 0
DWIDTH 14 0
BBX 14 20 0 -10
BITMAP
FFFC
FFFC
0300
0300
0300
0300
0300
0300
0300
0300
0300
0300
0300
0300
0300
0300
0300
0300
0300
0300
ENDCHAR

STARTCHAR ldvertical
ENCODING 120
SWIDTH 360 0
DWIDTH 14 0
BBX 2 40 6 -10
BITMAP
C0
C0
C0
C0
C0
C0
C0
C0
C0
C0
C0
C0
C0
C0
C0
C0
C0
C0
C0
C0
C0
C0
C0
C0
C0
C0
C0
C0
C0
C0
C0
C0
C0
C0
C0
C0
C0
C0
C0
C0
ENDCHAR

STARTCHAR lessequal
ENCODING 121
SWIDTH 360 0
DWIDTH 14 0
BBX 11 17 1 0
BITMAP
0060
01E0
0780
1E00
7800
E000
7800
1E00
0780
01E0
0060
0000
0000
0000
0000
7FE0
7FE0
ENDCHAR

STARTCHAR greaterequal
ENCODING 122
SWIDTH 360 0
DWIDTH 14 0
BBX 11 17 1 0
BITMAP
C000
F000
3C00
0F00
03C0
00E0
03C0
0F00
3C00
F000
C000
0000
0000
0000
0000
FFC0
FFC0
ENDCHAR

STARTCHAR pi
ENCODING 123
SWIDTH 360 0
DWIDTH 14 0
BBX 12 18 1 0
BITMAP
FFF0
FFF0
30C0
30C0
30C0
30C0
6180
6180
6180
6180
6180
6180
C300
C300
C300
C300
C3C0
C3C0
ENDCHAR

STARTCHAR notequal
ENCODING 124
SWIDTH 360 0
DWIDTH 14 0
BBX 10 16 2 3
BITMAP
0300
0300
0300
0300
FFC0
FFC0
0C00
0C00
0C00
0C00
FFC0
FFC0
3000
3000
3000
3000
ENDCHAR

STARTCHAR sterling
ENCODING 125
SWIDTH 360 0
DWIDTH 14 0
BBX 12 22 1 0
BITMAP
0F00
1F80
38C0
30C0
30C0
30C0
3000
3000
1800
1800
1800
7FC0
7FC0
0C00
0C00
0C00
1800
1800
3E10
7F30
C3F0
C0E0
ENDCHAR

STARTCHAR periodcentered
ENCODING 126
SWIDTH 360 0
DWIDTH 14 0
BBX 5 4 4 9
BITMAP
70
F8
F8
70
ENDCHAR

STARTCHAR Error
ENCODING 159
SWIDTH 360 0
DWIDTH 14 0
BBX 12 38 1 -8
BITMAP
1F80
7FE0
7FE0
F0F0
E070
E070
E070
E070
E070
E000
E000
F000
7000
7800
3C00
1E00
0E00
0F00
0700
0700
0700
0700
0700
0700
0700
0700
0000
0000
0000
0000
0000
0700
0700
0F80
0F80
0F80
0700
0700
ENDCHAR

STARTCHAR ldradicalbt
ENCODING 161
SWIDTH 360 0
DWIDTH 14 0
BBX 8 25 0 5
BITMAP
03
03
03
03
03
03
03
03
03
03
03
03
03
03
03
03
03
23
73
FB
BF
1F
0F
07
03
ENDCHAR

STARTCHAR ldradicaltp
ENCODING 162
SWIDTH 360 0
DWIDTH 14 0
BBX 8 20 6 -10
BITMAP
FF
FF
C0
C0
C0
C0
C0
C0
C0
C0
C0
C0
C0
C0
C0
C0
C0
C0
C0
C0
ENDCHAR

STARTCHAR ldhorizontal
ENCODING 163
SWIDTH 360 0
DWIDTH 14 0
BBX 14 2 0 8
BITMAP
FFFC
FFFC
ENDCHAR

STARTCHAR ldintegraltp
ENCODING 164
SWIDTH 360 0
DWIDTH 14 0
BBX 7 38 6 -10
BITMAP
3C
7E
C6
C0
C0
C0
C0
C0
C0
C0
C0
C0
C0
C0
C0
C0
C0
C0
C0
C0
C0
C0
C0
C0
C0
C0
C0
C0
C0
C0
C0
C0
C0
C0
C0
C0
C0
C0
ENDCHAR

STARTCHAR ldintegralbt
ENCODING 165
SWIDTH 360 0
DWIDTH 14 0
BBX 7 38 1 -8
BITMAP
06
06
06
06
06
06
06
06
06
06
06
06
06
06
06
06
06
06
06
06
06
06
06
06
06
06
06
06
06
06
06
06
06
06
C6
C6
FC
78
ENDCHAR

STARTCHAR ldvertical
ENCODING 166
SWIDTH 360 0
DWIDTH 14 0
BBX 2 40 6 -10
BITMAP
C0
C0
C0
C0
C0
C0
C0
C0
C0
C0
C0
C0
C0
C0
C0
C0
C0
C0
C0
C0
C0
C0
C0
C0
C0
C0
C0
C0
C0
C0
C0
C0
C0
C0
C0
C0
C0
C0
C0
C0
ENDCHAR

STARTCHAR ldbracketlfttp
ENCODING 167
SWIDTH 360 0
DWIDTH 14 0
BBX 8 38 6 -10
BITMAP
FF
FF
C0
C0
C0
C0
C0
C0
C0
C0
C0
C0
C0
C0
C0
C0
C0
C0
C0
C0
C0
C0
C0
C0
C0
C0
C0
C0
C0
C0
C0
C0
C0
C0
C0
C0
C0
C0
ENDCHAR

STARTCHAR ldbracketlftbt
ENCODING 168
SWIDTH 360 0
DWIDTH 14 0
BBX 8 38 6 -8
BITMAP
C0
C0
C0
C0
C0
C0
C0
C0
C0
C0
C0
C0
C0
C0
C0
C0
C0
C0
C0
C0
C0
C0
C0
C0
C0
C0
C0
C0
C0
C0
C0
C0
C0
C0
C0
C0
FF
FF
ENDCHAR

STARTCHAR ldbracketrttp
ENCODING 169
SWIDTH 360 0
DWIDTH 14 0
BBX 8 36 0 -10
BITMAP
FF
FF
03
03
03
03
03
03
03
03
03
03
03
03
03
03
03
03
03
03
03
03
03
03
03
03
03
03
03
03
03
03
03
03
03
03
ENDCHAR

STARTCHAR ldbracketrtbt
ENCODING 170
SWIDTH 360 0
DWIDTH 14 0
BBX 8 38 0 -8
BITMAP
03
03
03
03
03
03
03
03
03
03
03
03
03
03
03
03
03
03
03
03
03
03
03
03
03
03
03
03
03
03
03
03
03
03
03
03
FF
FF
ENDCHAR

STARTCHAR ldbracelfttp
ENCODING 171
SWIDTH 360 0
DWIDTH 14 0
BBX 8 38 6 -10
BITMAP
07
1F
38
30
60
60
60
C0
C0
C0
C0
C0
C0
C0
C0
C0
C0
C0
C0
C0
C0
C0
C0
C0
C0
C0
C0
C0
C0
C0
C0
C0
C0
C0
C0
C0
C0
C0
ENDCHAR

STARTCHAR ldbracelftbt
ENCODING 172
SWIDTH 360 0
DWIDTH 14 0
BBX 8 38 6 -8
BITMAP
C0
C0
C0
C0
C0
C0
C0
C0
C0
C0
C0
C0
C0
C0
C0
C0
C0
C0
C0
C0
C0
C0
C0
C0
C0
C0
C0
C0
C0
C0
C0
60
60
60
30
38
1F
07
ENDCHAR

STARTCHAR ldbracerttp
ENCODING 173
SWIDTH 360 0
DWIDTH 14 0
BBX 8 38 0 -10
BITMAP
E0
F8
1C
0C
06
06
06
03
03
03
03
03
03
03
03
03
03
03
03
03
03
03
03
03
03
03
03
03
03
03
03
03
03
03
03
03
03
03
ENDCHAR

STARTCHAR ldbracertbt
ENCODING 174
SWIDTH 360 0
DWIDTH 14 0
BBX 8 38 0 -8
BITMAP
03
03
03
03
03
03
03
03
03
03
03
03
03
03
03
03
03
03
03
03
03
03
03
03
03
03
03
03
03
03
03
06
06
06
0C
1C
F8
E0
ENDCHAR

STARTCHAR ldbracelftmid
ENCODING 175
SWIDTH 360 0
DWIDTH 14 0
BBX 6 40 2 -10
BITMAP
0C
0C
0C
0C
0C
0C
0C
0C
0C
0C
0C
0C
0C
0C
0C
0C
0C
18
38
E0
E0
38
18
0C
0C
0C
0C
0C
0C
0C
0C
0C
0C
0C
0C
0C
0C
0C
0C
0C
ENDCHAR

STARTCHAR ldbracertmid
ENCODING 176
SWIDTH 360 0
DWIDTH 14 0
BBX 6 40 6 -10
BITMAP
C0
C0
C0
C0
C0
C0
C0
C0
C0
C0
C0
C0
C0
C0
C0
C0
C0
60
70
1C
1C
70
60
C0
C0
C0
C0
C0
C0
C0
C0
C0
C0
C0
C0
C0
C0
C0
C0
C0
ENDCHAR

STARTCHAR ldsigmalfttp
ENCODING 177
SWIDTH 360 0
DWIDTH 14 0
BBX 7 20 7 -10
BITMAP
FE
FE
C0
40
60
60
20
30
30
10
18
18
08
0C
0C
04
06
06
02
02
ENDCHAR

STARTCHAR ldsigmalftbt
ENCODING 178
SWIDTH 360 0
DWIDTH 14 0
BBX 8 22 6 8
BITMAP
01
03
03
02
06
06
04
0C
0C
08
18
18
10
30
30
20
60
60
C0
C0
FF
FF
ENDCHAR

STARTCHAR ldbackslash
ENCODING 179
SWIDTH 360 0
DWIDTH 14 0
BBX 14 40 0 -10
BITMAP
8000
8000
C000
C000
C000
4000
6000
6000
6000
2000
3000
3000
1800
1800
0800
0800
0C00
0C00
0600
0600
0200
0200
0300
0300
0180
0180
0080
0080
00C0
00C0
0060
0060
0030
0030
0010
0010
0018
0018
000C
000C
ENDCHAR

STARTCHAR ldslash
ENCODING 180
SWIDTH 360 0
DWIDTH 14 0
BBX 14 40 0 -10
BITMAP
0004
000C
000C
0008
0018
0018
0010
0030
0030
0020
0060
0060
00C0
00C0
0080
0080
0180
0180
0300
0300
0200
0200
0600
0600
0C00
0C00
0800
0800
1800
1800
3000
3000
6000
6000
4000
4000
C000
C000
8000
8000
ENDCHAR

STARTCHAR ldsigmarttp
ENCODING 181
SWIDTH 360 0
DWIDTH 14 0
BBX 14 6 0 4
BITMAP
FFFC
FFFC
000C
000C
000C
000C
ENDCHAR

STARTCHAR ldsigmartbt
ENCODING 182
SWIDTH 360 0
DWIDTH 14 0
BBX 14 6 0 8
BITMAP
000C
000C
000C
000C
FFFC
FFFC
ENDCHAR

STARTCHAR ldsigmamid
ENCODING 183
SWIDTH 360 0
DWIDTH 14 0
BBX 7 40 0 -10
BITMAP
80
80
80
C0
C0
40
60
60
20
30
30
10
18
18
08
0C
0C
04
06
06
06
06
06
06
04
0C
0C
08
18
18
30
30
20
60
60
40
C0
C0
80
80
ENDCHAR

STARTCHAR lessequal
ENCODING 188
SWIDTH 360 0
DWIDTH 14 0
BBX 11 17 1 0
BITMAP
0060
01E0
0780
1E00
7800
E000
7800
1E00
0780
01E0
0060
0000
0000
0000
0000
7FE0
7FE0
ENDCHAR

STARTCHAR notequal
ENCODING 189
SWIDTH 360 0
DWIDTH 14 0
BBX 10 16 2 3
BITMAP
0300
0300
0300
0300
FFC0
FFC0
0C00
0C00
0C00
0C00
FFC0
FFC0
3000
3000
3000
3000
ENDCHAR

STARTCHAR greaterequal
ENCODING 190
SWIDTH 360 0
DWIDTH 14 0
BBX 11 17 1 0
BITMAP
C000
F000
3C00
0F00
03C0
00E0
03C0
0F00
3C00
F000
C000
0000
0000
0000
0000
FFC0
FFC0
ENDCHAR

STARTCHAR integral
ENCODING 191
SWIDTH 360 0
DWIDTH 14 0
BBX 10 36 2 -8
BITMAP
0780
07C0
0CC0
0C00
0C00
0C00
0C00
0C00
0C00
0C00
0C00
0C00
0C00
0C00
0C00
0C00
0C00
0C00
0C00
0C00
0C00
0C00
0C00
0C00
0C00
0C00
0C00
0C00
0C00
0C00
0C00
0C00
0C00
CC00
F800
7800
ENDCHAR

STARTCHAR therefore
ENCODING 192
SWIDTH 360 0
DWIDTH 14 0
BBX 13 18 0 0
BITMAP
0700
0F80
0F80
0F80
0700
0000
0000
0000
0000
0000
0000
0000
0000
7070
F8F8
F8F8
F8F8
7070
ENDCHAR

STARTCHAR proportional
ENCODING 193
SWIDTH 360 0
DWIDTH 14 0
BBX 12 14 1 4
BITMAP
3870
7CF0
C780
C300
C300
C300
C300
C300
C300
C300
C300
C780
7CF0
3870
ENDCHAR

STARTCHAR infinity
ENCODING 194
SWIDTH 360 0
DWIDTH 14 0
BBX 14 14 0 4
BITMAP
3870
7CF8
C78C
C30C
C30C
C30C
C30C
C30C
C30C
C30C
C30C
C78C
7CF8
3870
ENDCHAR

STARTCHAR divide
ENCODING 195
SWIDTH 360 0
DWIDTH 14 0
BBX 10 14 2 4
BITMAP
0C00
0C00
0C00
0C00
0000
0000
FFC0
FFC0
0000
0000
0C00
0C00
0C00
0C00
ENDCHAR

STARTCHAR Delta
ENCODING 196
SWIDTH 360 0
DWIDTH 14 0
BBX 12 22 1 0
BITMAP
0600
0600
0600
0600
0F00
0F00
0F00
0F00
1980
1980
1980
1980
30C0
30C0
30C0
30C0
6060
6060
6060
6060
FFF0
FFF0
ENDCHAR

STARTCHAR gradient
ENCODING 197
SWIDTH 360 0
DWIDTH 14 0
BBX 12 22 1 0
BITMAP
FFF0
FFF0
6060
6060
6060
6060
30C0
30C0
30C0
30C0
1980
1980
1980
1980
0F00
0F00
0F00
0F00
0600
0600
0600
0600
ENDCHAR

STARTCHAR Phi
ENCODING 198
SWIDTH 360 0
DWIDTH 14 0
BBX 10 22 2 0
BITMAP
3F00
3F00
0C00
0C00
3F00
7F80
CCC0
CCC0
CCC0
CCC0
CCC0
CCC0
CCC0
CCC0
CCC0
CCC0
7F80
3F00
0C00
0C00
3F00
3F00
ENDCHAR

STARTCHAR Gamma
ENCODING 199
SWIDTH 360 0
DWIDTH 14 0
BBX 10 22 2 0
BITMAP
FFC0
FFC0
30C0
30C0
30C0
30C0
30C0
3000
3000
3000
3000
3000
3000
3000
3000
3000
3000
3000
3000
3000
FF00
FF00
ENDCHAR

STARTCHAR similar
ENCODING 200
SWIDTH 360 0
DWIDTH 14 0
BBX 10 4 2 9
BITMAP
78C0
FCC0
CFC0
C780
ENDCHAR

STARTCHAR approxequal
ENCODING 201
SWIDTH 360 0
DWIDTH 14 0
BBX 10 8 2 5
BITMAP
78C0
FCC0
CFC0
C780
0000
0000
FFC0
FFC0
ENDCHAR

STARTCHAR Theta
ENCODING 202
SWIDTH 360 0
DWIDTH 14 0
BBX 10 22 2 0
BITMAP
1E00
7F80
6180
C0C0
C0C0
C0C0
C0C0
C0C0
CCC0
CCC0
CCC0
CCC0
CCC0
CCC0
C0C0
C0C0
C0C0
C0C0
C0C0
6180
7F80
1E00
ENDCHAR

STARTCHAR multiply
ENCODING 203
SWIDTH 360 0
DWIDTH 14 0
BBX 10 11 2 5
BITMAP
8040
C0C0
6180
3300
1E00
0C00
1E00
3300
6180
C0C0
8040
ENDCHAR

STARTCHAR Lambda
ENCODING 204
SWIDTH 360 0
DWIDTH 14 0
BBX 14 22 0 0
BITMAP
0300
0300
0300
0300
0780
0780
0780
0780
0CC0
0CC0
0CC0
0CC0
1860
1860
1860
1860
3030
3030
3030
3030
FCFC
FCFC
ENDCHAR

STARTCHAR arrowdblboth
ENCODING 205
SWIDTH 360 0
DWIDTH 14 0
BBX 14 14 0 4
BITMAP
1860
1860
3030
2010
7FF8
7FF8
C00C
C00C
7FF8
7FF8
2010
3030
1860
1860
ENDCHAR

STARTCHAR arrowdblright
ENCODING 206
SWIDTH 360 0
DWIDTH 14 0
BBX 14 14 0 4
BITMAP
00C0
00C0
0060
0030
FFF0
FFF8
000C
000C
FFF8
FFF0
0030
0060
00C0
00C0
ENDCHAR

STARTCHAR equivalence
ENCODING 207
SWIDTH 360 0
DWIDTH 14 0
BBX 10 14 2 4
BITMAP
FFC0
FFC0
0000
0000
0000
0000
FFC0
FFC0
0000
0000
0000
0000
FFC0
FFC0
ENDCHAR

STARTCHAR Pi
ENCODING 208
SWIDTH 360 0
DWIDTH 14 0
BBX 14 22 0 0
BITMAP
FFFC
FFFC
3030
3030
3030
3030
3030
3030
3030
3030
3030
3030
3030
3030
3030
3030
3030
3030
3030
3030
FCFC
FCFC
ENDCHAR

STARTCHAR Psi
ENCODING 209
SWIDTH 360 0
DWIDTH 14 0
BBX 10 22 2 0
BITMAP
3F00
3F00
0C00
0C00
CCC0
CCC0
CCC0
CCC0
CCC0
CCC0
CCC0
CCC0
CCC0
CCC0
7F80
3F00
0C00
0C00
0C00
0C00
3F00
3F00
ENDCHAR

STARTCHAR Sigma
ENCODING 211
SWIDTH 360 0
DWIDTH 14 0
BBX 12 22 1 0
BITMAP
FFF0
FFF0
6030
7030
3030
3830
1830
1C00
0C00
0E00
0700
0700
0E00
0C00
1C00
1830
3830
3030
7030
6030
FFF0
FFF0
ENDCHAR

STARTCHAR radical
ENCODING 214
SWIDTH 360 0
DWIDTH 14 0
BBX 13 32 1 -4
BITMAP
0038
0038
0030
0030
0030
0060
0060
0060
0060
0060
00C0
00C0
C0C0
C0C0
C0C0
C180
6180
6180
6180
6180
3300
3300
3300
3300
1B00
1B00
1E00
1E00
0E00
0E00
0C00
0C00
ENDCHAR

STARTCHAR Omega
ENCODING 215
SWIDTH 360 0
DWIDTH 14 0
BBX 10 22 2 0
BITMAP
1E00
7F80
6180
C0C0
C0C0
C0C0
C0C0
C0C0
C0C0
C0C0
C0C0
C0C0
C0C0
C0C0
6180
6180
3300
3300
3300
3300
F3C0
F3C0
ENDCHAR

STARTCHAR Xi
ENCODING 216
SWIDTH 360 0
DWIDTH 14 0
BBX 10 22 2 0
BITMAP
FFC0
FFC0
C0C0
C0C0
C0C0
C0C0
0000
0000
3300
3300
3F00
3F00
3300
3300
0000
0000
C0C0
C0C0
C0C0
C0C0
FFC0
FFC0
ENDCHAR

STARTCHAR Upsilon1
ENCODING 217
SWIDTH 360 0
DWIDTH 14 0
BBX 14 22 0 0
BITMAP
E01C
E01C
3030
3030
1860
1860
1860
0CC0
0CC0
0CC0
0780
0780
0300
0300
0300
0300
0300
0300
0300
0300
0FC0
0FC0
ENDCHAR

STARTCHAR propersubset
ENCODING 218
SWIDTH 360 0
DWIDTH 14 0
BBX 10 19 2 1
BITMAP
1FC0
7FC0
6000
C000
C000
C000
C000
C000
C000
C000
C000
C000
C000
C000
C000
C000
6000
7FC0
1FC0
ENDCHAR

STARTCHAR propersuperset
ENCODING 219
SWIDTH 360 0
DWIDTH 14 0
BBX 10 19 2 1
BITMAP
FE00
FF80
0180
00C0
00C0
00C0
00C0
00C0
00C0
00C0
00C0
00C0
00C0
00C0
00C0
00C0
0180
FF80
FE00
ENDCHAR

STARTCHAR intersection
ENCODING 220
SWIDTH 360 0
DWIDTH 14 0
BBX 10 20 2 1
BITMAP
1E00
7F80
6180
C0C0
C0C0
C0C0
C0C0
C0C0
C0C0
C0C0
C0C0
C0C0
C0C0
C0C0
C0C0
C0C0
C0C0
C0C0
C0C0
C0C0
ENDCHAR

STARTCHAR union
ENCODING 221
SWIDTH 360 0
DWIDTH 14 0
BBX 10 20 2 1
BITMAP
C0C0
C0C0
C0C0
C0C0
C0C0
C0C0
C0C0
C0C0
C0C0
C0C0
C0C0
C0C0
C0C0
C0C0
C0C0
C0C0
C0C0
6180
7F80
1E00
ENDCHAR

STARTCHAR logicaland
ENCODING 222
SWIDTH 360 0
DWIDTH 14 0
BBX 12 20 1 1
BITMAP
0600
0600
0600
0F00
0F00
0900
1980
1980
1980
1980
30C0
30C0
30C0
30C0
6060
6060
6060
6060
C030
C030
ENDCHAR

STARTCHAR logicalor
ENCODING 223
SWIDTH 360 0
DWIDTH 14 0
BBX 12 20 1 1
BITMAP
C030
C030
6060
6060
6060
6060
30C0
30C0
30C0
30C0
1980
1980
1980
1980
0900
0F00
0F00
0600
0600
0600
ENDCHAR

STARTCHAR logicalnot
ENCODING 224
SWIDTH 360 0
DWIDTH 14 0
BBX 10 6 2 7
BITMAP
FFC0
FFC0
00C0
00C0
00C0
00C0
ENDCHAR

STARTCHAR alpha
ENCODING 225
SWIDTH 360 0
DWIDTH 14 0
BBX 12 18 1 0
BITMAP
1E30
1F30
71F0
60E0
6060
C060
C060
C060
C060
C0C0
C0C0
C0C0
C0C0
C0C0
C1C0
63C0
7EF0
3CF0
ENDCHAR

STARTCHAR beta
ENCODING 226
SWIDTH 360 0
DWIDTH 14 0
BBX 12 32 1 -8
BITMAP
03C0
07E0
0C30
0C30
0C30
0C30
1830
1830
1830
1860
1BC0
1BE0
3030
3030
3030
3030
3030
3030
6030
6030
6830
6830
67E0
67C0
6000
6000
C000
C000
C000
C000
C000
C000
ENDCHAR

STARTCHAR chi
ENCODING 227
SWIDTH 360 0
DWIDTH 14 0
BBX 12 24 1 -6
BITMAP
3C30
3C30
0C30
0C60
0C60
0440
06C0
06C0
0780
0380
0300
0300
0300
0700
0700
0700
0D80
0D80
1980
1880
30C0
30C0
F0F0
F0F0
ENDCHAR

STARTCHAR delta
ENCODING 228
SWIDTH 360 0
DWIDTH 14 0
BBX 10 24 2 0
BITMAP
07C0
0FC0
1800
1800
1800
0C00
0C00
0600
1F00
7B80
6180
C0C0
C0C0
C0C0
C0C0
C0C0
C0C0
C0C0
C0C0
C0C0
C0C0
6180
7F80
1E00
ENDCHAR

STARTCHAR epsilon
ENCODING 229
SWIDTH 360 0
DWIDTH 14 0
BBX 10 18 2 0
BITMAP
07C0
1FC0
3800
3000
6000
6000
C000
C000
FFC0
FFC0
C000
C000
C000
E000
6000
7000
3FC0
0FC0
ENDCHAR

STARTCHAR phi
ENCODING 230
SWIDTH 360 0
DWIDTH 14 0
BBX 12 32 1 -8
BITMAP
0300
0300
0300
0300
0300
0300
0FC0
1FC0
3360
3360
6330
6330
6630
C630
C630
C630
C630
C630
C630
CC60
6C60
6CC0
3FC0
3F00
0C00
0C00
0C00
0C00
0C00
0C00
0C00
0C00
ENDCHAR

STARTCHAR gamma
ENCODING 231
SWIDTH 360 0
DWIDTH 14 0
BBX 10 24 2 -6
BITMAP
C0C0
C0C0
C0C0
C0C0
6180
6180
6180
6180
3300
3300
3300
1200
1E00
1E00
0C00
0C00
0C00
0C00
1800
1800
1800
1800
3000
3000
ENDCHAR

STARTCHAR eta
ENCODING 232
SWIDTH 360 0
DWIDTH 14 0
BBX 10 24 2 -6
BITMAP
CF80
FFC0
30C0
30C0
30C0
30C0
60C0
60C0
6180
6180
6180
6180
6180
C180
C180
C180
C300
C300
0300
0300
0300
0300
0300
0300
ENDCHAR

STARTCHAR iota
ENCODING 233
SWIDTH 360 0
DWIDTH 14 0
BBX 6 18 4 0
BITMAP
F0
F0
30
30
30
30
60
60
60
60
60
60
C0
C0
CC
CC
7C
78
ENDCHAR

STARTCHAR theta
ENCODING 234
SWIDTH 360 0
DWIDTH 14 0
BBX 10 24 2 0
BITMAP
0F80
1F80
30C0
30C0
30C0
60C0
60C0
60C0
60C0
60C0
FFC0
FFC0
C0C0
C0C0
C0C0
C180
C180
C180
C180
C300
C300
C300
7E00
7C00
ENDCHAR

STARTCHAR kappa
ENCODING 235
SWIDTH 360 0
DWIDTH 14 0
BBX 9 18 2 0
BITMAP
6180
6180
6300
6300
6600
6600
6C00
6C00
7800
F800
CC00
CC00
CC00
C600
C600
C600
C300
C380
ENDCHAR

STARTCHAR lambda
ENCODING 236
SWIDTH 360 0
DWIDTH 14 0
BBX 10 24 2 0
BITMAP
3C00
3C00
0C00
0C00
0C00
0C00
0C00
0C00
1C00
1C00
1C00
1C00
3600
3600
3600
3600
6600
6600
6300
6300
C300
C300
C3C0
C3C0
ENDCHAR

STARTCHAR nu
ENCODING 238
SWIDTH 360 0
DWIDTH 14 0
BBX 10 18 2 0
BITMAP
F0C0
F0C0
30C0
30C0
30C0
30C0
30C0
3180
3180
3180
3300
3300
3600
3600
3C00
3C00
3800
3800
ENDCHAR

STARTCHAR partialdiff
ENCODING 239
SWIDTH 360 0
DWIDTH 14 0
BBX 10 24 2 0
BITMAP
7800
7E00
0700
0300
0180
0180
00C0
3EC0
7FC0
61C0
C0C0
C0C0
C0C0
C0C0
C0C0
C0C0
C0C0
C0C0
C0C0
C0C0
C0C0
6180
7F80
3F00
ENDCHAR

STARTCHAR pi
ENCODING 240
SWIDTH 360 0
DWIDTH 14 0
BBX 12 18 1 0
BITMAP
FFF0
FFF0
30C0
30C0
30C0
30C0
6180
6180
6180
6180
6180
6180
C300
C300
C300
C300
C3C0
C3C0
ENDCHAR

STARTCHAR psi
ENCODING 241
SWIDTH 360 0
DWIDTH 14 0
BBX 11 30 1 -6
BITMAP
0600
0600
0600
0600
0600
0600
6660
6660
6660
6660
6660
6C60
CC60
CC60
CCC0
CCC0
CCC0
CCC0
CCC0
CCC0
CCC0
6D80
7F80
1E00
1800
1800
1800
1800
1800
1800
ENDCHAR

STARTCHAR rho
ENCODING 242
SWIDTH 360 0
DWIDTH 14 0
BBX 10 24 2 -6
BITMAP
0F00
3F80
3180
60C0
60C0
60C0
C0C0
C0C0
C0C0
C0C0
C0C0
C0C0
C0C0
C180
C180
E300
FF00
DC00
C000
C000
C000
C000
C000
C000
ENDCHAR

STARTCHAR sigma
ENCODING 243
SWIDTH 360 0
DWIDTH 14 0
BBX 12 18 1 0
BITMAP
1FF0
3FF0
7180
60C0
60C0
E0C0
C0C0
C0C0
C0C0
C0C0
C0C0
C0C0
C1C0
C180
C180
6380
7F00
1E00
ENDCHAR

STARTCHAR tau
ENCODING 244
SWIDTH 360 0
DWIDTH 14 0
BBX 10 18 2 0
BITMAP
FFC0
FFC0
0C00
0C00
0C00
0C00
1800
1800
1800
1800
1800
1800
3000
3000
30C0
30C0
1F80
1F00
ENDCHAR

STARTCHAR florin
ENCODING 246
SWIDTH 360 0
DWIDTH 14 0
BBX 12 28 0 -6
BITMAP
00F0
01F0
0180
0300
0300
0300
0300
0300
3FF0
3FF0
0300
0300
0300
0300
0300
0300
0600
0600
0600
0600
0600
0600
0600
0C00
0C00
0C00
F800
F000
ENDCHAR

STARTCHAR omega
ENCODING 247
SWIDTH 360 0
DWIDTH 14 0
BBX 11 18 2 0
BITMAP
6060
6060
6060
6060
6660
6660
6660
CCC0
CCC0
CCC0
CCC0
CCC0
CCC0
CCC0
CCC0
CCC0
7F80
3300
ENDCHAR

STARTCHAR xi
ENCODING 248
SWIDTH 360 0
DWIDTH 14 0
BBX 10 32 2 -8
BITMAP
3FC0
3FC0
0600
0C00
1800
1800
3000
3000
3800
1800
0F00
0F00
1800
3000
6000
6000
C000
C000
C000
C000
C000
E000
7F80
3FC0
00C0
00C0
00C0
00C0
00C0
00C0
0380
0300
ENDCHAR

STARTCHAR upsilon
ENCODING 249
SWIDTH 360 0
DWIDTH 14 0
BBX 10 18 2 0
BITMAP
C0C0
C0C0
C0C0
C0C0
C0C0
C0C0
C0C0
C0C0
C0C0
C0C0
C0C0
C0C0
C180
C180
C180
6300
7F00
3C00
ENDCHAR

STARTCHAR zeta
ENCODING 250
SWIDTH 360 0
DWIDTH 14 0
BBX 10 32 2 -8
BITMAP
3FC0
3FC0
00C0
0180
0380
0300
0600
0C00
1C00
1800
3000
7000
6000
6000
E000
C000
C000
C000
C000
C000
C000
6000
7F00
1F80
01C0
00C0
00C0
00C0
00C0
00C0
0380
0300
ENDCHAR

STARTCHAR arrowleft
ENCODING 251
SWIDTH 360 0
DWIDTH 14 0
BBX 13 10 1 4
BITMAP
0C00
1800
3000
6000
FFF8
FFF8
6000
3000
1800
0C00
ENDCHAR

STARTCHAR arrowup
ENCODING 252
SWIDTH 360 0
DWIDTH 14 0
BBX 10 25 2 -2
BITMAP
0C00
0C00
1E00
1E00
3F00
3F00
6D80
6D80
CCC0
CCC0
0C00
0C00
0C00
0C00
0C00
0C00
0C00
0C00
0C00
0C00
0C00
0C00
0C00
0C00
0C00
ENDCHAR

STARTCHAR arrowright
ENCODING 253
SWIDTH 360 0
DWIDTH 14 0
BBX 13 10 0 4
BITMAP
0180
00C0
0060
0030
FFF8
FFF8
0030
0060
00C0
0180
ENDCHAR

STARTCHAR arrowdown
ENCODING 254
SWIDTH 360 0
DWIDTH 14 0
BBX 10 25 2 -2
BITMAP
0C00
0C00
0C00
0C00
0C00
0C00
0C00
0C00
0C00
0C00
0C00
0C00
0C00
0C00
0C00
CCC0
CCC0
6D80
6D80
3F00
3F00
1E00
1E00
0C00
0C00
ENDCHAR
ENDFONT
